# xmcd
#
# Track frame offsets: 
#        150
#        19194
#        32965
#        42223
#        54770
#        70485
#        83177
#        95166
#        110736
#        122677
#        145918
#        158070
#        170660
#        182429
#        188547
#        211629
#        212662
#        228604
#        242339
#        258700
#        275174
#        288645
#        310757
#
# Disc length: 4299 seconds
#
# Revision: 0
# Processed by: cddbd v1.5.2PL0 Copyright (c) Steve Scherf et al.
# Submitted via: ExactAudioCopy v0.95b3
#
DISCID=5010c917
DTITLE=The Beatles  - Sgt Pepper Deluxe - Purple Chick - Disc 2 Mono F
DTITLE=LAC
DYEAR=1900
DGENRE=
TTITLE0=01 - Strawberry Fields Forever (mono)
TTITLE1=02 - Penny Lane (mono)
TTITLE2=03 - Sgt Pepper's Lonely Hearts Club Band (mono)
TTITLE3=04 - With A Little Help From My Friends (mono)
TTITLE4=05 - Lucy in the Sky With Diamonds (mono)
TTITLE5=06 - Getting Better (mono)
TTITLE6=07 - Fixing a Hole (mono)
TTITLE7=08 - She's Leaving Home (mono)
TTITLE8=09 - Being for the Benefit of Mr. Kite (mono)
TTITLE9=10 - Within You Without You (mono)
TTITLE10=11 - When I'm Sixty-Four (mono)
TTITLE11=12 - Lovely Rita (mono)
TTITLE12=13 - Good Morning Good Morning (mono)
TTITLE13=14 - Sgt. Pepper's Lonely Hearts Club Band (Reprise) (mono)
TTITLE14=15 - A Day in the Life (mono)
TTITLE15=16 - Run Out Groove  (Mono)
TTITLE16=17 - Only A Northern Song  (mono)
TTITLE17=18 - Penny Lane  RM11 (US mono promo)
TTITLE18=19 - Lucy In The Sky With Diamonds (unused movie mono mix)
TTITLE19=20 - Strawberry Fields Forever (ant stereo)
TTITLE20=21 - Penny Lane (ant stereo)
TTITLE21=22 - A Day In The Life  (ant stereo)
TTITLE22=23 - Ant Mix Medley
EXTD=
EXTT0=
EXTT1=
EXTT2=
EXTT3=
EXTT4=
EXTT5=
EXTT6=
EXTT7=
EXTT8=
EXTT9=
EXTT10=
EXTT11=
EXTT12=
EXTT13=
EXTT14=
EXTT15=
EXTT16=
EXTT17=
EXTT18=
EXTT19=
EXTT20=
EXTT21=
EXTT22=
PLAYORDER=
